<svg width="606.45" height="53.08848163195809" viewBox="0 0 350 30.6389126410839" class="css-1j8o68f">
<defs id="SvgjsDefs6610"></defs>
<g id="SvgjsG6611" featurekey="pulpyG-0" transform="matrix(2.0005569700758103,0,0,2.0005569700758103,-1.0540940505810117,-10.32963041664519)" fill="#ffffff"><path d="M13.545 13.3594 c0.56641 2.0508 -1.1328 4.4727 -2.7051 5.5371 c-3.0859 2.0215 -7.1582 1.6992 -10.313 0.078125 l0.91797 -4.0625 l1.5137 0 c0.19531 2.0996 4.8926 2.9688 5.3711 0.89844 c0.23438 -1.0254 -3.4473 -1.3086 -4.6777 -2.2754 c-0.068359 -0.058594 -0.14648 -0.11719 -0.20508 -0.17578 l-0.89844 0 c-0.97656 -0.91797 -1.0645 -2.1387 -0.78125 -3.4082 c1.1914 -5.2051 8.2617 -5.7227 12.344 -3.6621 l-0.9082 3.9551 l-1.5234 0 c0.097656 -1.4844 -4.3945 -2.5 -4.8145 -0.71289 c-0.2832 1.3867 4.2676 0.97656 5.5273 3.1738 c0.10742 0.19531 0.19531 0.42969 0.25391 0.6543 l0.89844 0 z M27.734015624999998 13.3594 l-0.25391 1.2207 c-0.88867 3.9063 -3.7109 5.7227 -7.6074 5.7227 c-3.9258 0 -5.8887 -1.875 -5.0195 -5.7129 l0.2832 -1.2305 l-0.87891 0 l1.8066 -7.9785 l4.9512 0 l-1.8164 7.9785 l0.87891 0 l-0.25391 1.0254 c-0.19531 0.86914 -0.41992 2.2363 0.88867 2.2363 c1.2109 0 1.6504 -1.2402 1.8848 -2.2363 l0.23438 -1.0254 l-0.9082 0 l1.8164 -7.9785 l4.9512 0 l-1.8164 7.9785 l0.85938 0 z M44.696875 13.6328 l-1.4844 6.3574 l-4.8828 0 l1.2793 -5.4199 c-0.49805 0.75195 -0.99609 1.4941 -1.4551 2.2461 l-3.4473 0 l-0.41992 -2.2656 l-1.2793 5.4395 l-4.6777 0 l1.4453 -6.3574 l-0.87891 0 l1.8848 -8.1836 l5.1855 0 l1.0645 5.2051 c1.1426 -1.7188 2.2852 -3.457 3.457 -5.2051 l5.1855 0 l-1.8848 8.1836 l0.9082 0 z M61.98203125 13.6328 l-1.4844 6.3574 l-4.8828 0 l1.2793 -5.4199 c-0.49805 0.75195 -0.99609 1.4941 -1.4551 2.2461 l-3.4473 0 l-0.41992 -2.2656 l-1.2793 5.4395 l-4.6777 0 l1.4453 -6.3574 l-0.87891 0 l1.8848 -8.1836 l5.1855 0 l1.0645 5.2051 c1.1426 -1.7188 2.2852 -3.457 3.457 -5.2051 l5.1855 0 l-1.8848 8.1836 l0.9082 0 z M77.6761875 12.8418 c-0.078125 0.3125 -0.16602 0.625 -0.2832 0.94727 l1.0645 0 c-1.2402 3.877 -4.3945 6.6895 -8.7207 6.6895 c-4.4629 0 -6.2012 -2.8125 -5.6348 -6.6895 l-1.0352 0 c0.039063 -0.32227 0.087891 -0.63477 0.15625 -0.94727 c1.0352 -4.4629 4.2676 -7.6563 8.9648 -7.6563 c4.5996 0 6.4941 3.2227 5.4883 7.6563 z M73.3881875 13.789100000000001 l-1.0547 0 c0.097656 -0.32227 0.19531 -0.63477 0.26367 -0.9668 c1.2402 -5.3613 -3.0859 -5.2051 -4.2969 0.019531 c-0.068359 0.3418 -0.11719 0.6543 -0.16602 0.94727 l1.0547 0 c-0.50781 4.082 2.8223 3.9941 4.1992 0 z M92.754015625 13.6328 l-1.4551 6.3574 l-4.541 0 l-1.9336 -6.3574 l-0.22461 0 l-1.4746 6.3574 l-4.5996 0 l1.4746 -6.3574 l-0.88867 0 l1.8848 -8.1836 l5.3613 0 l1.582 5.1367 l1.2012 -5.1367 l4.6191 0 l-1.8945 8.1836 l0.88867 0 z M94.736325 13.6719 l-0.99609 0 l1.9141 -8.2422 l10.459 0 l-0.83984 3.7012 l-5.5762 0 l-0.29297 1.25 l5.127 0 l-0.75195 3.291 l0.99609 0 l-0.087891 0.39063 l-5.1367 0 l-0.51758 2.2852 l5.5566 0 l-0.83984 3.6914 l-10.479 0 z M106.7284875 13.3594 l-0.88867 0 l1.8164 -7.9785 c1.6992 0 4.7656 -0.16602 7.1875 0.15625 c2.1387 0.3125 4.209 1.1035 3.8477 3.6719 c-0.20508 1.5527 -1.3965 3.1445 -2.6855 4.1504 l0.87891 0 c-0.23438 0.17578 -0.46875 0.36133 -0.72266 0.48828 l3.3398 6.1914 l-5.8594 0 l-2.4414 -4.7754 l-1.084 4.7754 l-4.9219 0 z M111.7675875 8.994 l-0.5957 2.5195 c2.3535 0 3.6719 -2.5195 0.5957 -2.5195 z M133.486796875 13.6328 l1.0938 0 c-1.0645 3.1445 -3.7793 5.6152 -7.0801 6.1914 c-2.4316 0.3418 -5.1758 0.17578 -7.6465 0.17578 l1.4648 -6.3672 l-1.084 0 l1.8848 -8.2031 c1.9531 0 6.8945 -0.30273 8.8477 0.52734 c2.7051 1.1621 3.3789 4.1211 2.7539 6.7578 c-0.048828 0.3125 -0.12695 0.625 -0.23438 0.91797 z M126.220696875 9.033 l-1.0547 4.5996 l1.084 0 l-0.63477 2.7344 c2.1191 0 3.3008 -0.80078 3.9551 -2.7344 l-1.084 0 c0.10742 -0.26367 0.18555 -0.57617 0.27344 -0.94727 c0.60547 -2.5293 -0.13672 -3.6523 -2.5391 -3.6523 z M136.591765625 13.6328 l-1.123 0 l4.5898 -8.1934 l4.873 0 l0.79102 8.1934 l1.0938 0 l0.61523 6.3574 l-5.0293 0 l-0.20508 -2.7441 l-2.7832 0 c-0.48828 0.9082 -0.94727 1.8262 -1.4355 2.7441 l-4.9414 0 z M142.070265625 13.837900000000001 l0 -0.20508 l-1.0645 0 l0.019531 -3.2422 l-1.3086 3.2422 l1.084 0 l-0.078125 0.20508 l1.3477 0 z M160.55671875 13.3594 c0.56641 2.0508 -1.1328 4.4727 -2.7051 5.5371 c-3.0859 2.0215 -7.1582 1.6992 -10.313 0.078125 l0.91797 -4.0625 l1.5137 0 c0.19531 2.0996 4.8926 2.9688 5.3711 0.89844 c0.23438 -1.0254 -3.4473 -1.3086 -4.6777 -2.2754 c-0.068359 -0.058594 -0.14648 -0.11719 -0.20508 -0.17578 l-0.89844 0 c-0.97656 -0.91797 -1.0645 -2.1387 -0.78125 -3.4082 c1.1914 -5.2051 8.2617 -5.7227 12.344 -3.6621 l-0.9082 3.9551 l-1.5234 0 c0.097656 -1.4844 -4.3945 -2.5 -4.8145 -0.71289 c-0.2832 1.3867 4.2676 0.97656 5.5273 3.1738 c0.10742 0.19531 0.19531 0.42969 0.25391 0.6543 l0.89844 0 z M174.579734375 13.6719 l-1.4844 6.3672 l-4.8926 0 l1.3867 -5.9766 l-2.832 0 l-1.3965 5.9766 l-4.9219 0 l1.4746 -6.3672 l-0.98633 0 l1.8848 -8.2422 l4.9219 0 l-1.123 4.9512 l2.8223 0 l1.1426 -4.9512 l4.9023 0 l-1.9043 8.2422 l1.0059 0 z">
</path>
</g>
</svg>